<mxfile host="app.diagrams.net" modified="2023-05-12T15:50:45.527Z" agent="Mozilla/5.0 (Windows NT 10.0; Win64; x64) AppleWebKit/537.36 (KHTML, like Gecko) Chrome/113.0.0.0 Safari/537.36" etag="dEKuN5sDO-YB9OUJArqU" version="21.2.9" type="device">
  <diagram name="Page-1" id="PaD_N5iN2Ax4gzfFCYPP">
    <mxGraphModel dx="478" dy="307" grid="1" gridSize="10" guides="1" tooltips="1" connect="1" arrows="1" fold="1" page="1" pageScale="1" pageWidth="850" pageHeight="1100" math="0" shadow="0">
      <root>
        <mxCell id="0" />
        <mxCell id="1" parent="0" />
        <mxCell id="FV7_8VHB-nhOon8U6oK2-12" value="" style="rounded=1;whiteSpace=wrap;html=1;" parent="1" vertex="1">
          <mxGeometry x="260" y="330" width="290" height="50" as="geometry" />
        </mxCell>
        <mxCell id="FV7_8VHB-nhOon8U6oK2-15" value="Z" style="text;html=1;align=center;verticalAlign=middle;resizable=0;points=[];autosize=1;strokeColor=none;fillColor=none;" parent="1" vertex="1">
          <mxGeometry x="395" y="190" width="30" height="30" as="geometry" />
        </mxCell>
        <mxCell id="FV7_8VHB-nhOon8U6oK2-16" value="" style="endArrow=none;html=1;rounded=0;" parent="1" edge="1">
          <mxGeometry width="50" height="50" relative="1" as="geometry">
            <mxPoint x="340" y="330" as="sourcePoint" />
            <mxPoint x="360" y="280" as="targetPoint" />
          </mxGeometry>
        </mxCell>
        <mxCell id="FV7_8VHB-nhOon8U6oK2-17" value="" style="endArrow=none;html=1;rounded=0;" parent="1" edge="1">
          <mxGeometry width="50" height="50" relative="1" as="geometry">
            <mxPoint x="460" y="330" as="sourcePoint" />
            <mxPoint x="440" y="280" as="targetPoint" />
          </mxGeometry>
        </mxCell>
        <mxCell id="FV7_8VHB-nhOon8U6oK2-18" value="" style="endArrow=none;html=1;rounded=0;" parent="1" edge="1">
          <mxGeometry width="50" height="50" relative="1" as="geometry">
            <mxPoint x="360" y="280" as="sourcePoint" />
            <mxPoint x="440" y="280" as="targetPoint" />
          </mxGeometry>
        </mxCell>
        <mxCell id="FV7_8VHB-nhOon8U6oK2-19" value="" style="endArrow=none;html=1;rounded=0;" parent="1" edge="1">
          <mxGeometry width="50" height="50" relative="1" as="geometry">
            <mxPoint x="375" y="280" as="sourcePoint" />
            <mxPoint x="375" y="230" as="targetPoint" />
          </mxGeometry>
        </mxCell>
        <mxCell id="FV7_8VHB-nhOon8U6oK2-20" value="" style="rounded=1;whiteSpace=wrap;html=1;" parent="1" vertex="1">
          <mxGeometry x="425" y="270" width="20" height="10" as="geometry" />
        </mxCell>
        <mxCell id="FV7_8VHB-nhOon8U6oK2-21" value="" style="endArrow=none;dashed=1;html=1;rounded=0;" parent="1" edge="1">
          <mxGeometry width="50" height="50" relative="1" as="geometry">
            <mxPoint x="445" y="270" as="sourcePoint" />
            <mxPoint x="560" y="210" as="targetPoint" />
          </mxGeometry>
        </mxCell>
        <mxCell id="FV7_8VHB-nhOon8U6oK2-22" value="" style="endArrow=none;dashed=1;html=1;rounded=0;" parent="1" edge="1">
          <mxGeometry width="50" height="50" relative="1" as="geometry">
            <mxPoint x="445" y="280" as="sourcePoint" />
            <mxPoint x="561" y="338" as="targetPoint" />
          </mxGeometry>
        </mxCell>
        <mxCell id="FV7_8VHB-nhOon8U6oK2-6" value="" style="endArrow=none;dashed=1;html=1;dashPattern=1 3;strokeWidth=1;rounded=0;entryX=0.476;entryY=1.013;entryDx=0;entryDy=0;entryPerimeter=0;" parent="1" source="FV7_8VHB-nhOon8U6oK2-24" target="FV7_8VHB-nhOon8U6oK2-12" edge="1">
          <mxGeometry width="50" height="50" relative="1" as="geometry">
            <mxPoint x="400" y="200" as="sourcePoint" />
            <mxPoint x="400" y="440" as="targetPoint" />
          </mxGeometry>
        </mxCell>
        <mxCell id="FV7_8VHB-nhOon8U6oK2-23" value="CO" style="text;html=1;align=center;verticalAlign=middle;resizable=0;points=[];autosize=1;strokeColor=none;fillColor=none;" parent="1" vertex="1">
          <mxGeometry x="365" y="325" width="40" height="30" as="geometry" />
        </mxCell>
        <mxCell id="FV7_8VHB-nhOon8U6oK2-27" value="" style="shape=trapezoid;perimeter=trapezoidPerimeter;whiteSpace=wrap;html=1;fixedSize=1;" parent="1" vertex="1">
          <mxGeometry x="280" y="320" width="20" height="10" as="geometry" />
        </mxCell>
        <mxCell id="FV7_8VHB-nhOon8U6oK2-28" value="" style="shape=trapezoid;perimeter=trapezoidPerimeter;whiteSpace=wrap;html=1;fixedSize=1;" parent="1" vertex="1">
          <mxGeometry x="510" y="320" width="20" height="10" as="geometry" />
        </mxCell>
        <mxCell id="FV7_8VHB-nhOon8U6oK2-30" value="" style="endArrow=none;dashed=1;html=1;dashPattern=1 3;strokeWidth=1;rounded=0;" parent="1" target="FV7_8VHB-nhOon8U6oK2-24" edge="1">
          <mxGeometry width="50" height="50" relative="1" as="geometry">
            <mxPoint x="400" y="200" as="sourcePoint" />
            <mxPoint x="400" y="440" as="targetPoint" />
          </mxGeometry>
        </mxCell>
        <mxCell id="FV7_8VHB-nhOon8U6oK2-31" value="" style="ellipse;whiteSpace=wrap;html=1;aspect=fixed;" parent="1" vertex="1">
          <mxGeometry x="370" y="220" width="10" height="10" as="geometry" />
        </mxCell>
        <mxCell id="FV7_8VHB-nhOon8U6oK2-33" value="" style="endArrow=classic;html=1;rounded=0;entryX=0.5;entryY=1;entryDx=0;entryDy=0;strokeColor=#FF3333;" parent="1" target="FV7_8VHB-nhOon8U6oK2-27" edge="1">
          <mxGeometry width="50" height="50" relative="1" as="geometry">
            <mxPoint x="400" y="330" as="sourcePoint" />
            <mxPoint x="450" y="280" as="targetPoint" />
          </mxGeometry>
        </mxCell>
        <mxCell id="FV7_8VHB-nhOon8U6oK2-34" value="G" style="text;html=1;align=center;verticalAlign=middle;resizable=0;points=[];autosize=1;strokeColor=none;fillColor=none;" parent="1" vertex="1">
          <mxGeometry x="330" y="325" width="30" height="30" as="geometry" />
        </mxCell>
        <mxCell id="FV7_8VHB-nhOon8U6oK2-35" value="" style="endArrow=classic;html=1;rounded=0;entryX=0.5;entryY=1;entryDx=0;entryDy=0;strokeColor=#FF3333;exitX=0.688;exitY=0.603;exitDx=0;exitDy=0;exitPerimeter=0;" parent="1" source="FV7_8VHB-nhOon8U6oK2-24" target="FV7_8VHB-nhOon8U6oK2-28" edge="1">
          <mxGeometry width="50" height="50" relative="1" as="geometry">
            <mxPoint x="410" y="340" as="sourcePoint" />
            <mxPoint x="300" y="340" as="targetPoint" />
          </mxGeometry>
        </mxCell>
        <mxCell id="FV7_8VHB-nhOon8U6oK2-36" value="G" style="text;html=1;align=center;verticalAlign=middle;resizable=0;points=[];autosize=1;strokeColor=none;fillColor=none;" parent="1" vertex="1">
          <mxGeometry x="450" y="325" width="30" height="30" as="geometry" />
        </mxCell>
        <mxCell id="FV7_8VHB-nhOon8U6oK2-37" value="" style="endArrow=classic;html=1;rounded=0;strokeColor=#FF3333;entryX=0.5;entryY=1;entryDx=0;entryDy=0;" parent="1" source="FV7_8VHB-nhOon8U6oK2-24" target="FV7_8VHB-nhOon8U6oK2-20" edge="1">
          <mxGeometry width="50" height="50" relative="1" as="geometry">
            <mxPoint x="410" y="340" as="sourcePoint" />
            <mxPoint x="445" y="275" as="targetPoint" />
          </mxGeometry>
        </mxCell>
        <mxCell id="FV7_8VHB-nhOon8U6oK2-38" value="C" style="text;html=1;align=center;verticalAlign=middle;resizable=0;points=[];autosize=1;strokeColor=none;fillColor=none;" parent="1" vertex="1">
          <mxGeometry x="410" y="295" width="30" height="30" as="geometry" />
        </mxCell>
        <mxCell id="FV7_8VHB-nhOon8U6oK2-39" value="" style="endArrow=classic;html=1;rounded=0;strokeColor=#FF3333;entryX=0.5;entryY=1;entryDx=0;entryDy=0;" parent="1" source="FV7_8VHB-nhOon8U6oK2-24" target="FV7_8VHB-nhOon8U6oK2-31" edge="1">
          <mxGeometry width="50" height="50" relative="1" as="geometry">
            <mxPoint x="413" y="336" as="sourcePoint" />
            <mxPoint x="455" y="285" as="targetPoint" />
          </mxGeometry>
        </mxCell>
        <mxCell id="FV7_8VHB-nhOon8U6oK2-24" value="" style="ellipse;whiteSpace=wrap;html=1;aspect=fixed;fillColor=#080808;" parent="1" vertex="1">
          <mxGeometry x="395" y="327" width="5" height="5" as="geometry" />
        </mxCell>
        <mxCell id="FV7_8VHB-nhOon8U6oK2-40" value="L" style="text;html=1;align=center;verticalAlign=middle;resizable=0;points=[];autosize=1;strokeColor=none;fillColor=none;" parent="1" vertex="1">
          <mxGeometry x="366" y="282" width="30" height="30" as="geometry" />
        </mxCell>
        <mxCell id="FV7_8VHB-nhOon8U6oK2-41" value="" style="ellipse;whiteSpace=wrap;html=1;aspect=fixed;" parent="1" vertex="1">
          <mxGeometry x="250" y="160" width="10" height="10" as="geometry" />
        </mxCell>
        <mxCell id="FV7_8VHB-nhOon8U6oK2-42" value="" style="shape=trapezoid;perimeter=trapezoidPerimeter;whiteSpace=wrap;html=1;fixedSize=1;" parent="1" vertex="1">
          <mxGeometry x="245" y="190" width="20" height="10" as="geometry" />
        </mxCell>
        <mxCell id="FV7_8VHB-nhOon8U6oK2-43" value="" style="rounded=1;whiteSpace=wrap;html=1;" parent="1" vertex="1">
          <mxGeometry x="245" y="220" width="20" height="10" as="geometry" />
        </mxCell>
        <mxCell id="FV7_8VHB-nhOon8U6oK2-44" style="edgeStyle=orthogonalEdgeStyle;rounded=0;orthogonalLoop=1;jettySize=auto;html=1;exitX=0.25;exitY=0;exitDx=0;exitDy=0;entryX=0;entryY=0;entryDx=0;entryDy=0;" parent="1" source="FV7_8VHB-nhOon8U6oK2-42" target="FV7_8VHB-nhOon8U6oK2-42" edge="1">
          <mxGeometry relative="1" as="geometry" />
        </mxCell>
        <mxCell id="FV7_8VHB-nhOon8U6oK2-45" value="Lidar" style="text;html=1;align=center;verticalAlign=middle;resizable=0;points=[];autosize=1;strokeColor=none;fillColor=none;" parent="1" vertex="1">
          <mxGeometry x="265" y="150" width="50" height="30" as="geometry" />
        </mxCell>
        <mxCell id="FV7_8VHB-nhOon8U6oK2-46" value="GNSS" style="text;html=1;align=center;verticalAlign=middle;resizable=0;points=[];autosize=1;strokeColor=none;fillColor=none;" parent="1" vertex="1">
          <mxGeometry x="265" y="180" width="60" height="30" as="geometry" />
        </mxCell>
        <mxCell id="FV7_8VHB-nhOon8U6oK2-47" value="Camera" style="text;html=1;align=center;verticalAlign=middle;resizable=0;points=[];autosize=1;strokeColor=none;fillColor=none;" parent="1" vertex="1">
          <mxGeometry x="265" y="210" width="70" height="30" as="geometry" />
        </mxCell>
        <mxCell id="OYpqC-mzMGctBrrTZE25-1" value="&lt;font style=&quot;font-size: 10px;&quot;&gt;1&lt;/font&gt;" style="text;html=1;align=center;verticalAlign=middle;resizable=0;points=[];autosize=1;strokeColor=none;fillColor=none;" vertex="1" parent="1">
          <mxGeometry x="337" y="330" width="30" height="30" as="geometry" />
        </mxCell>
        <mxCell id="OYpqC-mzMGctBrrTZE25-2" value="&lt;font style=&quot;font-size: 10px;&quot;&gt;2&lt;/font&gt;" style="text;html=1;align=center;verticalAlign=middle;resizable=0;points=[];autosize=1;strokeColor=none;fillColor=none;" vertex="1" parent="1">
          <mxGeometry x="457" y="330" width="30" height="30" as="geometry" />
        </mxCell>
      </root>
    </mxGraphModel>
  </diagram>
</mxfile>
